<mxfile host="app.diagrams.net" modified="2023-10-19T15:42:15.979Z" agent="Mozilla/5.0 (Windows NT 10.0; Win64; x64) AppleWebKit/537.36 (KHTML, like Gecko) Chrome/118.0.0.0 Safari/537.36" etag="8rwCsYws39h84eIVM2hY" version="22.0.4" type="device">
  <diagram name="Page-1" id="ZBT8s_TryDYXvqRpSv_G">
    <mxGraphModel dx="1434" dy="750" grid="1" gridSize="10" guides="1" tooltips="1" connect="1" arrows="1" fold="1" page="1" pageScale="1" pageWidth="827" pageHeight="1169" math="0" shadow="0">
      <root>
        <mxCell id="0" />
        <mxCell id="1" parent="0" />
        <mxCell id="ogkG9GeDWz1Ns32iHCzP-8" style="edgeStyle=orthogonalEdgeStyle;rounded=0;orthogonalLoop=1;jettySize=auto;html=1;exitX=1;exitY=0.5;exitDx=0;exitDy=0;endArrow=none;endFill=0;" edge="1" parent="1" source="ogkG9GeDWz1Ns32iHCzP-2" target="ogkG9GeDWz1Ns32iHCzP-3">
          <mxGeometry relative="1" as="geometry" />
        </mxCell>
        <mxCell id="ogkG9GeDWz1Ns32iHCzP-2" value="" style="ellipse;whiteSpace=wrap;html=1;aspect=fixed;" vertex="1" parent="1">
          <mxGeometry x="280" y="180" width="80" height="80" as="geometry" />
        </mxCell>
        <mxCell id="ogkG9GeDWz1Ns32iHCzP-3" value="" style="ellipse;whiteSpace=wrap;html=1;aspect=fixed;" vertex="1" parent="1">
          <mxGeometry x="480" y="180" width="80" height="80" as="geometry" />
        </mxCell>
        <mxCell id="ogkG9GeDWz1Ns32iHCzP-9" value="strengthen" style="edgeStyle=orthogonalEdgeStyle;rounded=0;orthogonalLoop=1;jettySize=auto;html=1;exitX=1;exitY=0.5;exitDx=0;exitDy=0;entryX=0;entryY=0.5;entryDx=0;entryDy=0;endArrow=none;endFill=0;" edge="1" parent="1" source="ogkG9GeDWz1Ns32iHCzP-4" target="ogkG9GeDWz1Ns32iHCzP-5">
          <mxGeometry relative="1" as="geometry" />
        </mxCell>
        <mxCell id="ogkG9GeDWz1Ns32iHCzP-4" value="fire" style="ellipse;whiteSpace=wrap;html=1;aspect=fixed;" vertex="1" parent="1">
          <mxGeometry x="280" y="280" width="80" height="80" as="geometry" />
        </mxCell>
        <mxCell id="ogkG9GeDWz1Ns32iHCzP-5" value="fire" style="ellipse;whiteSpace=wrap;html=1;aspect=fixed;" vertex="1" parent="1">
          <mxGeometry x="480" y="280" width="80" height="80" as="geometry" />
        </mxCell>
        <mxCell id="ogkG9GeDWz1Ns32iHCzP-10" value="weaken" style="edgeStyle=orthogonalEdgeStyle;rounded=0;orthogonalLoop=1;jettySize=auto;html=1;exitX=1;exitY=0.5;exitDx=0;exitDy=0;entryX=0;entryY=0.5;entryDx=0;entryDy=0;endArrow=none;endFill=0;" edge="1" parent="1" source="ogkG9GeDWz1Ns32iHCzP-6" target="ogkG9GeDWz1Ns32iHCzP-7">
          <mxGeometry relative="1" as="geometry" />
        </mxCell>
        <mxCell id="ogkG9GeDWz1Ns32iHCzP-6" value="fire" style="ellipse;whiteSpace=wrap;html=1;aspect=fixed;" vertex="1" parent="1">
          <mxGeometry x="280" y="380" width="80" height="80" as="geometry" />
        </mxCell>
        <mxCell id="ogkG9GeDWz1Ns32iHCzP-7" value="" style="ellipse;whiteSpace=wrap;html=1;aspect=fixed;" vertex="1" parent="1">
          <mxGeometry x="480" y="380" width="80" height="80" as="geometry" />
        </mxCell>
      </root>
    </mxGraphModel>
  </diagram>
</mxfile>
